<?xml version="1.0" standalone="no"?>
<!DOCTYPE svg PUBLIC "-//W3C//DTD SVG 20010904//EN"
 "http://www.w3.org/TR/2001/REC-SVG-20010904/DTD/svg10.dtd">
<svg version="1.0" xmlns="http://www.w3.org/2000/svg"
 width="300.000000pt" height="300.000000pt" viewBox="0 0 300.000000 300.000000"
 preserveAspectRatio="xMidYMid meet">
<metadata>
Created by potrace 1.11, written by Peter Selinger 2001-2013
</metadata>
<g transform="translate(0.000000,300.000000) scale(0.100000,-0.100000)"
fill="#000000" stroke="none">
<path d="M0 1500 l0 -1500 1500 0 1500 0 0 1500 0 1500 -1500 0 -1500 0 0
-1500z m1536 888 c3 -284 3 -288 24 -288 14 0 20 7 20 24 0 13 7 26 15 30 9 3
15 18 15 36 0 16 5 30 10 30 6 0 10 20 10 45 0 25 5 45 10 45 6 0 10 -20 10
-45 0 -25 5 -45 10 -45 6 0 10 -16 10 -35 0 -24 5 -35 15 -35 9 0 15 -9 15
-25 0 -18 5 -25 20 -25 17 0 20 7 20 48 l0 47 50 -55 49 -55 1 -92 0 -93 75 0
75 0 2 200 3 199 82 -62 82 -62 1 -147 0 -148 50 0 50 0 0 -90 0 -90 80 0 80
0 0 29 c0 16 6 31 14 34 9 4 19 35 27 81 7 42 16 76 20 76 3 0 4 -11 1 -25 -2
-14 0 -31 6 -38 5 -6 12 -28 16 -48 4 -21 13 -42 21 -49 12 -10 15 -47 15
-201 0 -104 -2 -189 -5 -189 -2 0 -33 18 -67 41 -35 22 -105 61 -155 85 -54
26 -93 51 -93 59 0 18 -17 20 -22 4 -3 -9 -13 -9 -41 0 l-37 13 -2 296 -3 297
-2 -293 c-3 -228 -6 -293 -16 -289 -9 3 -13 79 -17 308 l-5 304 -3 -302 c-2
-262 -4 -303 -17 -303 -13 0 -15 42 -15 314 0 225 -3 317 -11 322 -9 5 -10
-72 -5 -303 4 -171 4 -313 -1 -316 -4 -3 -37 2 -73 10 -36 8 -85 16 -110 19
-25 2 -65 7 -90 10 -69 8 -170 8 -217 0 l-43 -8 0 336 c0 217 -4 336 -10 336
-6 0 -10 -118 -10 -335 l0 -335 -25 0 -25 0 0 311 c0 204 -3 308 -10 304 -6
-4 -10 -120 -10 -316 l0 -309 -25 0 -26 0 3 280 c2 154 -1 279 -5 277 -4 -1
-9 -128 -10 -282 l-2 -279 -30 -7 c-16 -3 -68 -14 -115 -24 -47 -10 -98 -23
-115 -30 -91 -37 -178 -60 -182 -47 -7 19 -23 14 -23 -7 0 -13 -24 -29 -96
-60 -53 -24 -98 -40 -101 -38 -2 3 -12 -2 -22 -12 -9 -9 -53 -36 -96 -60 -44
-24 -88 -50 -97 -59 -17 -14 -18 -10 -18 76 0 75 3 92 15 92 9 0 15 9 15 25 0
14 4 25 9 25 5 0 13 36 17 80 3 44 10 80 14 80 4 0 10 -32 14 -70 3 -39 10
-78 15 -88 5 -9 12 -25 15 -34 3 -10 12 -18 21 -18 13 0 15 21 15 140 l0 140
75 0 75 0 0 -55 0 -55 90 0 89 0 3 73 3 72 47 3 48 3 2 206 3 207 78 -68 77
-67 0 -115 c0 -63 3 -114 6 -114 3 0 28 19 55 42 l49 41 0 153 0 152 121 116
c67 64 122 116 123 116 1 0 2 -24 2 -52z m243 -769 c326 -30 661 -181 897
-403 l69 -65 -100 65 c-202 133 -440 232 -685 285 -93 20 -134 23 -345 23
-207 1 -256 -2 -356 -21 -330 -63 -628 -183 -999 -401 l-25 -14 25 21 c78 66
317 214 470 290 368 182 704 253 1049 220z m-876 -508 c63 -141 94 -201 110
-209 17 -8 4 -11 -63 -11 -61 0 -79 3 -62 9 27 11 28 41 4 90 l-17 35 -81 3
-81 3 -16 -43 c-23 -58 -21 -77 6 -88 17 -7 7 -9 -40 -9 l-62 -1 22 23 c13 12
59 106 102 209 44 103 82 188 85 188 3 0 45 -89 93 -199z m1060 0 c63 -142 94
-201 110 -209 17 -8 5 -11 -63 -11 -61 0 -79 3 -62 9 27 11 28 41 4 90 l-17
35 -80 0 -80 0 -17 -35 c-24 -49 -23 -79 5 -90 17 -7 7 -9 -42 -9 l-64 -1 25
23 c14 13 57 100 104 210 43 103 81 187 84 187 3 0 45 -89 93 -199z m328 188
c29 -9 42 -9 52 0 12 9 16 5 21 -20 3 -17 6 -48 6 -68 l0 -36 -23 40 c-29 52
-85 83 -124 70 -16 -6 -32 -22 -37 -37 -13 -38 11 -70 92 -123 91 -58 107 -78
107 -130 0 -82 -72 -126 -170 -104 -42 9 -58 9 -69 0 -12 -10 -15 -7 -19 16
-22 114 -17 131 18 66 38 -70 115 -94 160 -48 47 46 26 95 -66 150 -32 20 -69
49 -83 66 -44 52 -30 125 29 157 26 15 59 15 106 1z m-987 -13 c89 -37 87
-134 -2 -180 l-41 -21 69 -84 c38 -47 79 -90 92 -97 21 -12 20 -13 -24 -14
l-47 0 -78 95 c-46 57 -85 95 -96 95 -16 0 -18 -8 -15 -82 3 -77 5 -83 28 -95
22 -11 15 -13 -60 -13 -79 0 -83 1 -62 16 21 15 22 21 22 194 l0 178 -27 10
c-22 8 -1 11 90 11 80 1 128 -4 151 -13z m331 7 c-43 -11 -45 -18 -45 -198 0
-180 2 -187 45 -198 11 -2 -23 -5 -75 -5 -72 -1 -89 2 -70 9 13 6 28 15 32 22
4 7 8 84 8 172 0 88 -4 165 -8 172 -4 7 -19 16 -32 22 -19 7 -2 10 70 9 52 0
86 -3 75 -5z m-1315 -558 c42 -22 41 -66 0 -96 l-30 -22 46 -54 c38 -44 42
-53 26 -53 -12 0 -40 22 -67 55 -26 30 -52 55 -57 55 -6 0 -8 -24 -6 -55 3
-53 2 -55 -22 -55 l-25 0 3 114 c3 103 1 115 -15 119 -10 3 13 5 50 6 43 1 79
-5 97 -14z m288 -15 c2 -24 2 -24 -13 -6 -11 14 -28 20 -62 20 l-48 1 -3 -47
-3 -48 45 0 c34 0 46 4 49 18 3 9 5 -1 6 -23 0 -32 -2 -36 -10 -22 -7 11 -22
17 -49 17 l-40 0 0 -55 0 -55 47 0 c34 0 53 6 70 22 23 21 29 15 17 -16 -5
-13 -23 -16 -93 -16 l-86 0 3 114 c3 103 1 115 -15 119 -10 3 27 4 82 4 99 -2
100 -2 103 -27z m192 -82 c24 -57 48 -109 53 -115 7 -10 2 -13 -19 -13 -24 0
-29 4 -30 25 -3 40 -22 55 -70 55 -39 0 -46 -3 -55 -27 -5 -14 -8 -32 -5 -40
4 -9 -3 -13 -21 -13 -24 0 -25 1 -11 18 8 9 35 63 58 119 24 56 46 100 50 98
4 -3 27 -51 50 -107z m178 105 c-16 -4 -18 -18 -18 -114 l0 -109 49 0 c42 0
53 4 72 28 13 16 20 20 16 9 -4 -10 -7 -25 -7 -33 0 -11 -20 -14 -97 -13 -54
0 -92 3 -85 6 8 3 12 35 12 108 0 89 -3 106 -17 114 -14 8 -5 10 37 10 30 -1
47 -3 38 -6z m413 -2 c-11 -7 -9 -17 15 -55 16 -25 32 -46 35 -46 8 0 59 77
59 89 0 5 -6 12 -12 14 -7 3 5 5 27 5 22 0 34 -2 27 -5 -7 -3 -31 -32 -53 -65
-37 -54 -40 -64 -37 -114 3 -52 2 -54 -22 -54 -24 0 -25 2 -22 54 3 50 0 60
-35 110 -42 61 -53 67 -54 34 l0 -23 -11 23 c-8 16 -20 22 -45 22 l-33 0 0
-98 c0 -63 4 -102 12 -110 9 -9 3 -12 -27 -12 -30 0 -36 3 -27 12 8 8 12 47
12 110 l0 98 -33 0 c-25 0 -37 -6 -45 -22 -10 -22 -11 -21 -11 10 l-1 32 148
0 c89 0 142 -4 133 -9z m468 -30 l2 -34 -30 31 c-58 64 -139 28 -148 -64 -7
-69 14 -109 66 -125 57 -17 81 -1 81 56 0 25 -5 45 -12 48 -7 3 1 6 17 6 l30
1 -3 -54 c-4 -51 -6 -55 -34 -65 -97 -34 -188 21 -188 114 0 86 49 126 151
122 l65 -2 3 -34z m203 12 c18 -19 20 -27 13 -49 -6 -15 -19 -32 -30 -38 -11
-6 -22 -12 -24 -13 -4 -3 45 -69 71 -95 17 -17 17 -18 -6 -18 -17 0 -36 16
-66 55 -24 31 -48 54 -54 52 -16 -5 -20 -76 -5 -93 10 -12 5 -14 -27 -13 -22
0 -33 3 -26 6 8 3 12 35 12 108 0 88 -3 106 -17 115 -14 8 1 10 59 8 64 -3 82
-7 100 -25z m256 11 c75 -52 66 -187 -15 -220 -130 -55 -232 105 -132 206 25
25 39 30 78 30 26 0 56 -7 69 -16z m159 9 c-16 -4 -17 -16 -15 -106 3 -99 4
-102 30 -114 28 -14 75 -3 90 20 4 7 8 51 8 99 0 72 -3 89 -17 97 -13 8 11 10
88 11 93 0 110 -3 133 -21 26 -20 34 -60 18 -86 -10 -15 -57 -33 -89 -33 -24
0 -25 -2 -21 -50 3 -48 2 -50 -22 -50 l-25 0 3 116 3 116 -23 -4 c-22 -3 -23
-8 -28 -97 -5 -86 -7 -95 -33 -117 -46 -39 -123 -27 -146 23 -6 13 -11 60 -11
103 0 65 -3 81 -17 89 -14 8 -5 10 37 10 30 -1 47 -3 37 -6z"/>
<path d="M1580 2070 c0 -5 5 -10 11 -10 5 0 7 5 4 10 -3 6 -8 10 -11 10 -2 0
-4 -4 -4 -10z"/>
<path d="M1630 2070 c0 -5 5 -10 11 -10 5 0 7 5 4 10 -3 6 -8 10 -11 10 -2 0
-4 -4 -4 -10z"/>
<path d="M1680 2070 c0 -5 5 -10 11 -10 5 0 7 5 4 10 -3 6 -8 10 -11 10 -2 0
-4 -4 -4 -10z"/>
<path d="M1630 1859 c0 -5 5 -7 10 -4 6 3 10 8 10 11 0 2 -4 4 -10 4 -5 0 -10
-5 -10 -11z"/>
<path d="M1680 1860 c0 -5 5 -10 10 -10 6 0 10 5 10 10 0 6 -4 10 -10 10 -5 0
-10 -4 -10 -10z"/>
<path d="M2200 1830 c0 -11 5 -20 10 -20 6 0 10 9 10 20 0 11 -4 20 -10 20 -5
0 -10 -9 -10 -20z"/>
<path d="M1630 1819 c0 -5 5 -7 10 -4 6 3 10 8 10 11 0 2 -4 4 -10 4 -5 0 -10
-5 -10 -11z"/>
<path d="M1680 1820 c0 -5 5 -10 10 -10 6 0 10 5 10 10 0 6 -4 10 -10 10 -5 0
-10 -4 -10 -10z"/>
<path d="M1630 1780 c0 -5 5 -10 11 -10 5 0 7 5 4 10 -3 6 -8 10 -11 10 -2 0
-4 -4 -4 -10z"/>
<path d="M1680 1780 c0 -5 5 -10 11 -10 5 0 7 5 4 10 -3 6 -8 10 -11 10 -2 0
-4 -4 -4 -10z"/>
<path d="M2200 1740 c0 -11 5 -20 10 -20 6 0 10 9 10 20 0 11 -4 20 -10 20 -5
0 -10 -9 -10 -20z"/>
<path d="M960 1725 c0 -8 5 -15 10 -15 6 0 10 7 10 15 0 8 -4 15 -10 15 -5 0
-10 -7 -10 -15z"/>
<path d="M2200 1645 c0 -14 5 -25 10 -25 6 0 10 11 10 25 0 14 -4 25 -10 25
-5 0 -10 -11 -10 -25z"/>
<path d="M2280 1645 c0 -14 5 -25 10 -25 6 0 10 11 10 25 0 14 -4 25 -10 25
-5 0 -10 -11 -10 -25z"/>
<path d="M2367 1663 c-11 -10 -8 -43 3 -43 6 0 10 11 10 25 0 26 -2 29 -13 18z"/>
<path d="M960 1645 c0 -8 5 -15 10 -15 6 0 10 7 10 15 0 8 -4 15 -10 15 -5 0
-10 -7 -10 -15z"/>
<path d="M772 1578 c6 -18 28 -21 28 -4 0 9 -7 16 -16 16 -9 0 -14 -5 -12 -12z"/>
<path d="M870 1575 c0 -8 5 -15 10 -15 6 0 10 7 10 15 0 8 -4 15 -10 15 -5 0
-10 -7 -10 -15z"/>
<path d="M960 1575 c0 -8 5 -15 10 -15 6 0 10 7 10 15 0 8 -4 15 -10 15 -5 0
-10 -7 -10 -15z"/>
<path d="M2280 1550 c0 -11 5 -20 10 -20 6 0 10 9 10 20 0 11 -4 20 -10 20 -5
0 -10 -9 -10 -20z"/>
<path d="M2360 1550 c0 -11 5 -20 10 -20 6 0 10 9 10 20 0 11 -4 20 -10 20 -5
0 -10 -9 -10 -20z"/>
<path d="M775 1520 c-7 -12 2 -30 16 -30 5 0 9 9 9 20 0 21 -15 27 -25 10z"/>
<path d="M505 1370 c3 -5 8 -10 11 -10 2 0 4 5 4 10 0 6 -5 10 -11 10 -5 0 -7
-4 -4 -10z"/>
<path d="M753 1130 l-31 -80 69 0 c38 0 69 4 69 8 0 18 -56 146 -66 149 -5 1
-23 -33 -41 -77z"/>
<path d="M1813 1130 l-31 -80 69 0 c38 0 69 4 69 9 0 16 -58 145 -67 148 -4 2
-22 -33 -40 -77z"/>
<path d="M1168 1274 c-5 -4 -8 -45 -8 -92 l0 -84 43 7 c23 4 52 13 65 21 45
29 51 94 12 129 -21 19 -100 32 -112 19z"/>
<path d="M237 734 c-4 -4 -7 -29 -7 -56 0 -45 2 -48 25 -48 27 0 65 31 65 53
0 32 -63 71 -83 51z"/>
<path d="M716 650 c-9 -22 -16 -43 -16 -45 0 -3 18 -5 41 -5 35 0 40 3 34 18
-4 9 -12 29 -17 45 -14 37 -23 34 -42 -13z"/>
<path d="M1957 733 c-4 -3 -7 -28 -7 -55 0 -46 1 -48 28 -48 33 0 62 27 62 58
0 33 -62 67 -83 45z"/>
<path d="M2201 718 c-41 -44 -39 -141 4 -184 32 -32 60 -30 96 5 24 25 29 37
29 81 0 55 -19 104 -45 114 -32 12 -64 6 -84 -16z"/>
<path d="M2707 734 c-4 -4 -7 -29 -7 -56 0 -56 14 -67 57 -46 31 15 44 66 21
86 -18 14 -62 25 -71 16z"/>
</g>
</svg>
